# NAUTILUS thruster podu (yalnizca gorsel)
v -0.040000000 0.000000000 0.000000000
v -0.039318517 0.007764571 0.000000000
v -0.039318517 0.007500000 0.002009619
v -0.039318517 0.006724316 0.003882286
v -0.039318517 0.005490381 0.005490381
v -0.039318517 0.003882286 0.006724316
v -0.039318517 0.002009619 0.007500000
v -0.039318517 0.000000000 0.007764571
v -0.039318517 -0.002009619 0.007500000
v -0.039318517 -0.003882286 0.006724316
v -0.039318517 -0.005490381 0.005490381
v -0.039318517 -0.006724316 0.003882286
v -0.039318517 -0.007500000 0.002009619
v -0.039318517 -0.007764571 0.000000000
v -0.039318517 -0.007500000 -0.002009619
v -0.039318517 -0.006724316 -0.003882286
v -0.039318517 -0.005490381 -0.005490381
v -0.039318517 -0.003882286 -0.006724316
v -0.039318517 -0.002009619 -0.007500000
v -0.039318517 -0.000000000 -0.007764571
v -0.039318517 0.002009619 -0.007500000
v -0.039318517 0.003882286 -0.006724316
v -0.039318517 0.005490381 -0.005490381
v -0.039318517 0.006724316 -0.003882286
v -0.039318517 0.007500000 -0.002009619
v -0.037320508 0.015000000 0.000000000
v -0.037320508 0.014488887 0.003882286
v -0.037320508 0.012990381 0.007500000
v -0.037320508 0.010606602 0.010606602
v -0.037320508 0.007500000 0.012990381
v -0.037320508 0.003882286 0.014488887
v -0.037320508 0.000000000 0.015000000
v -0.037320508 -0.003882286 0.014488887
v -0.037320508 -0.007500000 0.012990381
v -0.037320508 -0.010606602 0.010606602
v -0.037320508 -0.012990381 0.007500000
v -0.037320508 -0.014488887 0.003882286
v -0.037320508 -0.015000000 0.000000000
v -0.037320508 -0.014488887 -0.003882286
v -0.037320508 -0.012990381 -0.007500000
v -0.037320508 -0.010606602 -0.010606602
v -0.037320508 -0.007500000 -0.012990381
v -0.037320508 -0.003882286 -0.014488887
v -0.037320508 -0.000000000 -0.015000000
v -0.037320508 0.003882286 -0.014488887
v -0.037320508 0.007500000 -0.012990381
v -0.037320508 0.010606602 -0.010606602
v -0.037320508 0.012990381 -0.007500000
v -0.037320508 0.014488887 -0.003882286
v -0.034142136 0.021213203 0.000000000
v -0.034142136 0.020490381 0.005490381
v -0.034142136 0.018371173 0.010606602
v -0.034142136 0.015000000 0.015000000
v -0.034142136 0.010606602 0.018371173
v -0.034142136 0.005490381 0.020490381
v -0.034142136 0.000000000 0.021213203
v -0.034142136 -0.005490381 0.020490381
v -0.034142136 -0.010606602 0.018371173
v -0.034142136 -0.015000000 0.015000000
v -0.034142136 -0.018371173 0.010606602
v -0.034142136 -0.020490381 0.005490381
v -0.034142136 -0.021213203 0.000000000
v -0.034142136 -0.020490381 -0.005490381
v -0.034142136 -0.018371173 -0.010606602
v -0.034142136 -0.015000000 -0.015000000
v -0.034142136 -0.010606602 -0.018371173
v -0.034142136 -0.005490381 -0.020490381
v -0.034142136 -0.000000000 -0.021213203
v -0.034142136 0.005490381 -0.020490381
v -0.034142136 0.010606602 -0.018371173
v -0.034142136 0.015000000 -0.015000000
v -0.034142136 0.018371173 -0.010606602
v -0.034142136 0.020490381 -0.005490381
v -0.030000000 0.025980762 0.000000000
v -0.030000000 0.025095489 0.006724316
v -0.030000000 0.022500000 0.012990381
v -0.030000000 0.018371173 0.018371173
v -0.030000000 0.012990381 0.022500000
v -0.030000000 0.006724316 0.025095489
v -0.030000000 0.000000000 0.025980762
v -0.030000000 -0.006724316 0.025095489
v -0.030000000 -0.012990381 0.022500000
v -0.030000000 -0.018371173 0.018371173
v -0.030000000 -0.022500000 0.012990381
v -0.030000000 -0.025095489 0.006724316
v -0.030000000 -0.025980762 0.000000000
v -0.030000000 -0.025095489 -0.006724316
v -0.030000000 -0.022500000 -0.012990381
v -0.030000000 -0.018371173 -0.018371173
v -0.030000000 -0.012990381 -0.022500000
v -0.030000000 -0.006724316 -0.025095489
v -0.030000000 -0.000000000 -0.025980762
v -0.030000000 0.006724316 -0.025095489
v -0.030000000 0.012990381 -0.022500000
v -0.030000000 0.018371173 -0.018371173
v -0.030000000 0.022500000 -0.012990381
v -0.030000000 0.025095489 -0.006724316
v -0.025176381 0.028977775 0.000000000
v -0.025176381 0.027990381 0.007500000
v -0.025176381 0.025095489 0.014488887
v -0.025176381 0.020490381 0.020490381
v -0.025176381 0.014488887 0.025095489
v -0.025176381 0.007500000 0.027990381
v -0.025176381 0.000000000 0.028977775
v -0.025176381 -0.007500000 0.027990381
v -0.025176381 -0.014488887 0.025095489
v -0.025176381 -0.020490381 0.020490381
v -0.025176381 -0.025095489 0.014488887
v -0.025176381 -0.027990381 0.007500000
v -0.025176381 -0.028977775 0.000000000
v -0.025176381 -0.027990381 -0.007500000
v -0.025176381 -0.025095489 -0.014488887
v -0.025176381 -0.020490381 -0.020490381
v -0.025176381 -0.014488887 -0.025095489
v -0.025176381 -0.007500000 -0.027990381
v -0.025176381 -0.000000000 -0.028977775
v -0.025176381 0.007500000 -0.027990381
v -0.025176381 0.014488887 -0.025095489
v -0.025176381 0.020490381 -0.020490381
v -0.025176381 0.025095489 -0.014488887
v -0.025176381 0.027990381 -0.007500000
v -0.020000000 0.030000000 0.000000000
v -0.020000000 0.028977775 0.007764571
v -0.020000000 0.025980762 0.015000000
v -0.020000000 0.021213203 0.021213203
v -0.020000000 0.015000000 0.025980762
v -0.020000000 0.007764571 0.028977775
v -0.020000000 0.000000000 0.030000000
v -0.020000000 -0.007764571 0.028977775
v -0.020000000 -0.015000000 0.025980762
v -0.020000000 -0.021213203 0.021213203
v -0.020000000 -0.025980762 0.015000000
v -0.020000000 -0.028977775 0.007764571
v -0.020000000 -0.030000000 0.000000000
v -0.020000000 -0.028977775 -0.007764571
v -0.020000000 -0.025980762 -0.015000000
v -0.020000000 -0.021213203 -0.021213203
v -0.020000000 -0.015000000 -0.025980762
v -0.020000000 -0.007764571 -0.028977775
v -0.020000000 -0.000000000 -0.030000000
v -0.020000000 0.007764571 -0.028977775
v -0.020000000 0.015000000 -0.025980762
v -0.020000000 0.021213203 -0.021213203
v -0.020000000 0.025980762 -0.015000000
v -0.020000000 0.028977775 -0.007764571
v 0.000000000 0.030000000 0.000000000
v 0.000000000 0.028977775 0.007764571
v 0.000000000 0.025980762 0.015000000
v 0.000000000 0.021213203 0.021213203
v 0.000000000 0.015000000 0.025980762
v 0.000000000 0.007764571 0.028977775
v 0.000000000 0.000000000 0.030000000
v 0.000000000 -0.007764571 0.028977775
v 0.000000000 -0.015000000 0.025980762
v 0.000000000 -0.021213203 0.021213203
v 0.000000000 -0.025980762 0.015000000
v 0.000000000 -0.028977775 0.007764571
v 0.000000000 -0.030000000 0.000000000
v 0.000000000 -0.028977775 -0.007764571
v 0.000000000 -0.025980762 -0.015000000
v 0.000000000 -0.021213203 -0.021213203
v 0.000000000 -0.015000000 -0.025980762
v 0.000000000 -0.007764571 -0.028977775
v 0.000000000 -0.000000000 -0.030000000
v 0.000000000 0.007764571 -0.028977775
v 0.000000000 0.015000000 -0.025980762
v 0.000000000 0.021213203 -0.021213203
v 0.000000000 0.025980762 -0.015000000
v 0.000000000 0.028977775 -0.007764571
v 0.020000000 0.030000000 0.000000000
v 0.020000000 0.028977775 0.007764571
v 0.020000000 0.025980762 0.015000000
v 0.020000000 0.021213203 0.021213203
v 0.020000000 0.015000000 0.025980762
v 0.020000000 0.007764571 0.028977775
v 0.020000000 0.000000000 0.030000000
v 0.020000000 -0.007764571 0.028977775
v 0.020000000 -0.015000000 0.025980762
v 0.020000000 -0.021213203 0.021213203
v 0.020000000 -0.025980762 0.015000000
v 0.020000000 -0.028977775 0.007764571
v 0.020000000 -0.030000000 0.000000000
v 0.020000000 -0.028977775 -0.007764571
v 0.020000000 -0.025980762 -0.015000000
v 0.020000000 -0.021213203 -0.021213203
v 0.020000000 -0.015000000 -0.025980762
v 0.020000000 -0.007764571 -0.028977775
v 0.020000000 -0.000000000 -0.030000000
v 0.020000000 0.007764571 -0.028977775
v 0.020000000 0.015000000 -0.025980762
v 0.020000000 0.021213203 -0.021213203
v 0.020000000 0.025980762 -0.015000000
v 0.020000000 0.028977775 -0.007764571
v 0.025176381 0.028977775 0.000000000
v 0.025176381 0.027990381 0.007500000
v 0.025176381 0.025095489 0.014488887
v 0.025176381 0.020490381 0.020490381
v 0.025176381 0.014488887 0.025095489
v 0.025176381 0.007500000 0.027990381
v 0.025176381 0.000000000 0.028977775
v 0.025176381 -0.007500000 0.027990381
v 0.025176381 -0.014488887 0.025095489
v 0.025176381 -0.020490381 0.020490381
v 0.025176381 -0.025095489 0.014488887
v 0.025176381 -0.027990381 0.007500000
v 0.025176381 -0.028977775 0.000000000
v 0.025176381 -0.027990381 -0.007500000
v 0.025176381 -0.025095489 -0.014488887
v 0.025176381 -0.020490381 -0.020490381
v 0.025176381 -0.014488887 -0.025095489
v 0.025176381 -0.007500000 -0.027990381
v 0.025176381 -0.000000000 -0.028977775
v 0.025176381 0.007500000 -0.027990381
v 0.025176381 0.014488887 -0.025095489
v 0.025176381 0.020490381 -0.020490381
v 0.025176381 0.025095489 -0.014488887
v 0.025176381 0.027990381 -0.007500000
v 0.030000000 0.025980762 0.000000000
v 0.030000000 0.025095489 0.006724316
v 0.030000000 0.022500000 0.012990381
v 0.030000000 0.018371173 0.018371173
v 0.030000000 0.012990381 0.022500000
v 0.030000000 0.006724316 0.025095489
v 0.030000000 0.000000000 0.025980762
v 0.030000000 -0.006724316 0.025095489
v 0.030000000 -0.012990381 0.022500000
v 0.030000000 -0.018371173 0.018371173
v 0.030000000 -0.022500000 0.012990381
v 0.030000000 -0.025095489 0.006724316
v 0.030000000 -0.025980762 0.000000000
v 0.030000000 -0.025095489 -0.006724316
v 0.030000000 -0.022500000 -0.012990381
v 0.030000000 -0.018371173 -0.018371173
v 0.030000000 -0.012990381 -0.022500000
v 0.030000000 -0.006724316 -0.025095489
v 0.030000000 -0.000000000 -0.025980762
v 0.030000000 0.006724316 -0.025095489
v 0.030000000 0.012990381 -0.022500000
v 0.030000000 0.018371173 -0.018371173
v 0.030000000 0.022500000 -0.012990381
v 0.030000000 0.025095489 -0.006724316
v 0.034142136 0.021213203 0.000000000
v 0.034142136 0.020490381 0.005490381
v 0.034142136 0.018371173 0.010606602
v 0.034142136 0.015000000 0.015000000
v 0.034142136 0.010606602 0.018371173
v 0.034142136 0.005490381 0.020490381
v 0.034142136 0.000000000 0.021213203
v 0.034142136 -0.005490381 0.020490381
v 0.034142136 -0.010606602 0.018371173
v 0.034142136 -0.015000000 0.015000000
v 0.034142136 -0.018371173 0.010606602
v 0.034142136 -0.020490381 0.005490381
v 0.034142136 -0.021213203 0.000000000
v 0.034142136 -0.020490381 -0.005490381
v 0.034142136 -0.018371173 -0.010606602
v 0.034142136 -0.015000000 -0.015000000
v 0.034142136 -0.010606602 -0.018371173
v 0.034142136 -0.005490381 -0.020490381
v 0.034142136 -0.000000000 -0.021213203
v 0.034142136 0.005490381 -0.020490381
v 0.034142136 0.010606602 -0.018371173
v 0.034142136 0.015000000 -0.015000000
v 0.034142136 0.018371173 -0.010606602
v 0.034142136 0.020490381 -0.005490381
v 0.037320508 0.015000000 0.000000000
v 0.037320508 0.014488887 0.003882286
v 0.037320508 0.012990381 0.007500000
v 0.037320508 0.010606602 0.010606602
v 0.037320508 0.007500000 0.012990381
v 0.037320508 0.003882286 0.014488887
v 0.037320508 0.000000000 0.015000000
v 0.037320508 -0.003882286 0.014488887
v 0.037320508 -0.007500000 0.012990381
v 0.037320508 -0.010606602 0.010606602
v 0.037320508 -0.012990381 0.007500000
v 0.037320508 -0.014488887 0.003882286
v 0.037320508 -0.015000000 0.000000000
v 0.037320508 -0.014488887 -0.003882286
v 0.037320508 -0.012990381 -0.007500000
v 0.037320508 -0.010606602 -0.010606602
v 0.037320508 -0.007500000 -0.012990381
v 0.037320508 -0.003882286 -0.014488887
v 0.037320508 -0.000000000 -0.015000000
v 0.037320508 0.003882286 -0.014488887
v 0.037320508 0.007500000 -0.012990381
v 0.037320508 0.010606602 -0.010606602
v 0.037320508 0.012990381 -0.007500000
v 0.037320508 0.014488887 -0.003882286
v 0.039318517 0.007764571 0.000000000
v 0.039318517 0.007500000 0.002009619
v 0.039318517 0.006724316 0.003882286
v 0.039318517 0.005490381 0.005490381
v 0.039318517 0.003882286 0.006724316
v 0.039318517 0.002009619 0.007500000
v 0.039318517 0.000000000 0.007764571
v 0.039318517 -0.002009619 0.007500000
v 0.039318517 -0.003882286 0.006724316
v 0.039318517 -0.005490381 0.005490381
v 0.039318517 -0.006724316 0.003882286
v 0.039318517 -0.007500000 0.002009619
v 0.039318517 -0.007764571 0.000000000
v 0.039318517 -0.007500000 -0.002009619
v 0.039318517 -0.006724316 -0.003882286
v 0.039318517 -0.005490381 -0.005490381
v 0.039318517 -0.003882286 -0.006724316
v 0.039318517 -0.002009619 -0.007500000
v 0.039318517 -0.000000000 -0.007764571
v 0.039318517 0.002009619 -0.007500000
v 0.039318517 0.003882286 -0.006724316
v 0.039318517 0.005490381 -0.005490381
v 0.039318517 0.006724316 -0.003882286
v 0.039318517 0.007500000 -0.002009619
v 0.040000000 0.000000000 0.000000000
vn -0.996104483 0.087426429 0.011509908
vn -0.996104483 0.081468462 0.033745342
vn -0.996104483 0.069958554 0.053681087
vn -0.996104483 0.053681087 0.069958554
vn -0.996104483 0.033745342 0.081468462
vn -0.996104483 0.011509908 0.087426429
vn -0.996104483 -0.011509908 0.087426429
vn -0.996104483 -0.033745342 0.081468462
vn -0.996104483 -0.053681087 0.069958554
vn -0.996104483 -0.069958554 0.053681087
vn -0.996104483 -0.081468462 0.033745342
vn -0.996104483 -0.087426429 0.011509908
vn -0.996104483 -0.087426429 -0.011509908
vn -0.996104483 -0.081468462 -0.033745342
vn -0.996104483 -0.069958554 -0.053681087
vn -0.996104483 -0.053681087 -0.069958554
vn -0.996104483 -0.033745342 -0.081468462
vn -0.996104483 -0.011509908 -0.087426429
vn -0.996104483 0.011509908 -0.087426429
vn -0.996104483 0.033745342 -0.081468462
vn -0.996104483 0.053681087 -0.069958554
vn -0.996104483 0.069958554 -0.053681087
vn -0.996104483 0.081468462 -0.033745342
vn -0.996104483 0.087426429 -0.011509908
vn -0.963332001 0.266016787 0.035021774
vn -0.963332001 0.266016787 0.035021774
vn -0.963332001 0.247888182 0.102678647
vn -0.963332001 0.247888182 0.102678647
vn -0.963332001 0.212866408 0.163338140
vn -0.963332001 0.212866408 0.163338140
vn -0.963332001 0.163338140 0.212866408
vn -0.963332001 0.163338140 0.212866408
vn -0.963332001 0.102678647 0.247888182
vn -0.963332001 0.102678647 0.247888182
vn -0.963332001 0.035021774 0.266016787
vn -0.963332001 0.035021774 0.266016787
vn -0.963332001 -0.035021774 0.266016787
vn -0.963332001 -0.035021774 0.266016787
vn -0.963332001 -0.102678647 0.247888182
vn -0.963332001 -0.102678647 0.247888182
vn -0.963332001 -0.163338140 0.212866408
vn -0.963332001 -0.163338140 0.212866408
vn -0.963332001 -0.212866408 0.163338140
vn -0.963332001 -0.212866408 0.163338140
vn -0.963332001 -0.247888182 0.102678647
vn -0.963332001 -0.247888182 0.102678647
vn -0.963332001 -0.266016787 0.035021774
vn -0.963332001 -0.266016787 0.035021774
vn -0.963332001 -0.266016787 -0.035021774
vn -0.963332001 -0.266016787 -0.035021774
vn -0.963332001 -0.247888182 -0.102678647
vn -0.963332001 -0.247888182 -0.102678647
vn -0.963332001 -0.212866408 -0.163338140
vn -0.963332001 -0.212866408 -0.163338140
vn -0.963332001 -0.163338140 -0.212866408
vn -0.963332001 -0.163338140 -0.212866408
vn -0.963332001 -0.102678647 -0.247888182
vn -0.963332001 -0.102678647 -0.247888182
vn -0.963332001 -0.035021774 -0.266016787
vn -0.963332001 -0.035021774 -0.266016787
vn -0.963332001 0.035021774 -0.266016787
vn -0.963332001 0.035021774 -0.266016787
vn -0.963332001 0.102678647 -0.247888182
vn -0.963332001 0.102678647 -0.247888182
vn -0.963332001 0.163338140 -0.212866408
vn -0.963332001 0.163338140 -0.212866408
vn -0.963332001 0.212866408 -0.163338140
vn -0.963332001 0.212866408 -0.163338140
vn -0.963332001 0.247888182 -0.102678647
vn -0.963332001 0.247888182 -0.102678647
vn -0.963332001 0.266016787 -0.035021774
vn -0.963332001 0.266016787 -0.035021774
vn -0.888679886 0.454605374 0.059849933
vn -0.888679886 0.454605374 0.059849933
vn -0.888679886 0.423624769 0.175471125
vn -0.888679886 0.423624769 0.175471125
vn -0.888679886 0.363774836 0.279134249
vn -0.888679886 0.363774836 0.279134249
vn -0.888679886 0.279134249 0.363774836
vn -0.888679886 0.279134249 0.363774836
vn -0.888679886 0.175471125 0.423624769
vn -0.888679886 0.175471125 0.423624769
vn -0.888679886 0.059849933 0.454605374
vn -0.888679886 0.059849933 0.454605374
vn -0.888679886 -0.059849933 0.454605374
vn -0.888679886 -0.059849933 0.454605374
vn -0.888679886 -0.175471125 0.423624769
vn -0.888679886 -0.175471125 0.423624769
vn -0.888679886 -0.279134249 0.363774836
vn -0.888679886 -0.279134249 0.363774836
vn -0.888679886 -0.363774836 0.279134249
vn -0.888679886 -0.363774836 0.279134249
vn -0.888679886 -0.423624769 0.175471125
vn -0.888679886 -0.423624769 0.175471125
vn -0.888679886 -0.454605374 0.059849933
vn -0.888679886 -0.454605374 0.059849933
vn -0.888679886 -0.454605374 -0.059849933
vn -0.888679886 -0.454605374 -0.059849933
vn -0.888679886 -0.423624769 -0.175471125
vn -0.888679886 -0.423624769 -0.175471125
vn -0.888679886 -0.363774836 -0.279134249
vn -0.888679886 -0.363774836 -0.279134249
vn -0.888679886 -0.279134249 -0.363774836
vn -0.888679886 -0.279134249 -0.363774836
vn -0.888679886 -0.175471125 -0.423624769
vn -0.888679886 -0.175471125 -0.423624769
vn -0.888679886 -0.059849933 -0.454605374
vn -0.888679886 -0.059849933 -0.454605374
vn -0.888679886 0.059849933 -0.454605374
vn -0.888679886 0.059849933 -0.454605374
vn -0.888679886 0.175471125 -0.423624769
vn -0.888679886 0.175471125 -0.423624769
vn -0.888679886 0.279134249 -0.363774836
vn -0.888679886 0.279134249 -0.363774836
vn -0.888679886 0.363774836 -0.279134249
vn -0.888679886 0.363774836 -0.279134249
vn -0.888679886 0.423624769 -0.175471125
vn -0.888679886 0.423624769 -0.175471125
vn -0.888679886 0.454605374 -0.059849933
vn -0.888679886 0.454605374 -0.059849933
vn -0.752086775 0.653425712 0.086025127
vn -0.752086775 0.653425712 0.086025127
vn -0.752086775 0.608895829 0.252212911
vn -0.752086775 0.608895829 0.252212911
vn -0.752086775 0.522870702 0.401212801
vn -0.752086775 0.522870702 0.401212801
vn -0.752086775 0.401212801 0.522870702
vn -0.752086775 0.401212801 0.522870702
vn -0.752086775 0.252212911 0.608895829
vn -0.752086775 0.252212911 0.608895829
vn -0.752086775 0.086025127 0.653425712
vn -0.752086775 0.086025127 0.653425712
vn -0.752086775 -0.086025127 0.653425712
vn -0.752086775 -0.086025127 0.653425712
vn -0.752086775 -0.252212911 0.608895829
vn -0.752086775 -0.252212911 0.608895829
vn -0.752086775 -0.401212801 0.522870702
vn -0.752086775 -0.401212801 0.522870702
vn -0.752086775 -0.522870702 0.401212801
vn -0.752086775 -0.522870702 0.401212801
vn -0.752086775 -0.608895829 0.252212911
vn -0.752086775 -0.608895829 0.252212911
vn -0.752086775 -0.653425712 0.086025127
vn -0.752086775 -0.653425712 0.086025127
vn -0.752086775 -0.653425712 -0.086025127
vn -0.752086775 -0.653425712 -0.086025127
vn -0.752086775 -0.608895829 -0.252212911
vn -0.752086775 -0.608895829 -0.252212911
vn -0.752086775 -0.522870702 -0.401212801
vn -0.752086775 -0.522870702 -0.401212801
vn -0.752086775 -0.401212801 -0.522870702
vn -0.752086775 -0.401212801 -0.522870702
vn -0.752086775 -0.252212911 -0.608895829
vn -0.752086775 -0.252212911 -0.608895829
vn -0.752086775 -0.086025127 -0.653425712
vn -0.752086775 -0.086025127 -0.653425712
vn -0.752086775 0.086025127 -0.653425712
vn -0.752086775 0.086025127 -0.653425712
vn -0.752086775 0.252212911 -0.608895829
vn -0.752086775 0.252212911 -0.608895829
vn -0.752086775 0.401212801 -0.522870702
vn -0.752086775 0.401212801 -0.522870702
vn -0.752086775 0.522870702 -0.401212801
vn -0.752086775 0.522870702 -0.401212801
vn -0.752086775 0.608895829 -0.252212911
vn -0.752086775 0.608895829 -0.252212911
vn -0.752086775 0.653425712 -0.086025127
vn -0.752086775 0.653425712 -0.086025127
vn -0.524480409 0.844138478 0.111132939
vn -0.524480409 0.844138478 0.111132939
vn -0.524480409 0.786611836 0.325825291
vn -0.524480409 0.786611836 0.325825291
vn -0.524480409 0.675478897 0.518313187
vn -0.524480409 0.675478897 0.518313187
vn -0.524480409 0.518313187 0.675478897
vn -0.524480409 0.518313187 0.675478897
vn -0.524480409 0.325825291 0.786611836
vn -0.524480409 0.325825291 0.786611836
vn -0.524480409 0.111132939 0.844138478
vn -0.524480409 0.111132939 0.844138478
vn -0.524480409 -0.111132939 0.844138478
vn -0.524480409 -0.111132939 0.844138478
vn -0.524480409 -0.325825291 0.786611836
vn -0.524480409 -0.325825291 0.786611836
vn -0.524480409 -0.518313187 0.675478897
vn -0.524480409 -0.518313187 0.675478897
vn -0.524480409 -0.675478897 0.518313187
vn -0.524480409 -0.675478897 0.518313187
vn -0.524480409 -0.786611836 0.325825291
vn -0.524480409 -0.786611836 0.325825291
vn -0.524480409 -0.844138478 0.111132939
vn -0.524480409 -0.844138478 0.111132939
vn -0.524480409 -0.844138478 -0.111132939
vn -0.524480409 -0.844138478 -0.111132939
vn -0.524480409 -0.786611836 -0.325825291
vn -0.524480409 -0.786611836 -0.325825291
vn -0.524480409 -0.675478897 -0.518313187
vn -0.524480409 -0.675478897 -0.518313187
vn -0.524480409 -0.518313187 -0.675478897
vn -0.524480409 -0.518313187 -0.675478897
vn -0.524480409 -0.325825291 -0.786611836
vn -0.524480409 -0.325825291 -0.786611836
vn -0.524480409 -0.111132939 -0.844138478
vn -0.524480409 -0.111132939 -0.844138478
vn -0.524480409 0.111132939 -0.844138478
vn -0.524480409 0.111132939 -0.844138478
vn -0.524480409 0.325825291 -0.786611836
vn -0.524480409 0.325825291 -0.786611836
vn -0.524480409 0.518313187 -0.675478897
vn -0.524480409 0.518313187 -0.675478897
vn -0.524480409 0.675478897 -0.518313187
vn -0.524480409 0.675478897 -0.518313187
vn -0.524480409 0.786611836 -0.325825291
vn -0.524480409 0.786611836 -0.325825291
vn -0.524480409 0.844138478 -0.111132939
vn -0.524480409 0.844138478 -0.111132939
vn -0.192141203 0.972971557 0.128094136
vn -0.192141203 0.972971557 0.128094136
vn -0.192141203 0.906665153 0.375553003
vn -0.192141203 0.906665153 0.375553003
vn -0.192141203 0.778571018 0.597418554
vn -0.192141203 0.778571018 0.597418554
vn -0.192141203 0.597418554 0.778571018
vn -0.192141203 0.597418554 0.778571018
vn -0.192141203 0.375553003 0.906665153
vn -0.192141203 0.375553003 0.906665153
vn -0.192141203 0.128094136 0.972971557
vn -0.192141203 0.128094136 0.972971557
vn -0.192141203 -0.128094136 0.972971557
vn -0.192141203 -0.128094136 0.972971557
vn -0.192141203 -0.375553003 0.906665153
vn -0.192141203 -0.375553003 0.906665153
vn -0.192141203 -0.597418554 0.778571018
vn -0.192141203 -0.597418554 0.778571018
vn -0.192141203 -0.778571018 0.597418554
vn -0.192141203 -0.778571018 0.597418554
vn -0.192141203 -0.906665153 0.375553003
vn -0.192141203 -0.906665153 0.375553003
vn -0.192141203 -0.972971557 0.128094136
vn -0.192141203 -0.972971557 0.128094136
vn -0.192141203 -0.972971557 -0.128094136
vn -0.192141203 -0.972971557 -0.128094136
vn -0.192141203 -0.906665153 -0.375553003
vn -0.192141203 -0.906665153 -0.375553003
vn -0.192141203 -0.778571018 -0.597418554
vn -0.192141203 -0.778571018 -0.597418554
vn -0.192141203 -0.597418554 -0.778571018
vn -0.192141203 -0.597418554 -0.778571018
vn -0.192141203 -0.375553003 -0.906665153
vn -0.192141203 -0.375553003 -0.906665153
vn -0.192141203 -0.128094136 -0.972971557
vn -0.192141203 -0.128094136 -0.972971557
vn -0.192141203 0.128094136 -0.972971557
vn -0.192141203 0.128094136 -0.972971557
vn -0.192141203 0.375553003 -0.906665153
vn -0.192141203 0.375553003 -0.906665153
vn -0.192141203 0.597418554 -0.778571018
vn -0.192141203 0.597418554 -0.778571018
vn -0.192141203 0.778571018 -0.597418554
vn -0.192141203 0.778571018 -0.597418554
vn -0.192141203 0.906665153 -0.375553003
vn -0.192141203 0.906665153 -0.375553003
vn -0.192141203 0.972971557 -0.128094136
vn -0.192141203 0.972971557 -0.128094136
vn 0.000000000 0.991444861 0.130526192
vn -0.000000000 0.991444861 0.130526192
vn 0.000000000 0.923879533 0.382683432
vn -0.000000000 0.923879533 0.382683432
vn 0.000000000 0.793353340 0.608761429
vn -0.000000000 0.793353340 0.608761429
vn 0.000000000 0.608761429 0.793353340
vn -0.000000000 0.608761429 0.793353340
vn 0.000000000 0.382683432 0.923879533
vn -0.000000000 0.382683432 0.923879533
vn 0.000000000 0.130526192 0.991444861
vn -0.000000000 0.130526192 0.991444861
vn 0.000000000 -0.130526192 0.991444861
vn 0.000000000 -0.130526192 0.991444861
vn 0.000000000 -0.382683432 0.923879533
vn 0.000000000 -0.382683432 0.923879533
vn 0.000000000 -0.608761429 0.793353340
vn 0.000000000 -0.608761429 0.793353340
vn 0.000000000 -0.793353340 0.608761429
vn 0.000000000 -0.793353340 0.608761429
vn 0.000000000 -0.923879533 0.382683432
vn 0.000000000 -0.923879533 0.382683432
vn 0.000000000 -0.991444861 0.130526192
vn 0.000000000 -0.991444861 0.130526192
vn 0.000000000 -0.991444861 -0.130526192
vn 0.000000000 -0.991444861 -0.130526192
vn 0.000000000 -0.923879533 -0.382683432
vn 0.000000000 -0.923879533 -0.382683432
vn 0.000000000 -0.793353340 -0.608761429
vn 0.000000000 -0.793353340 -0.608761429
vn 0.000000000 -0.608761429 -0.793353340
vn 0.000000000 -0.608761429 -0.793353340
vn 0.000000000 -0.382683432 -0.923879533
vn 0.000000000 -0.382683432 -0.923879533
vn 0.000000000 -0.130526192 -0.991444861
vn 0.000000000 -0.130526192 -0.991444861
vn 0.000000000 0.130526192 -0.991444861
vn 0.000000000 0.130526192 -0.991444861
vn 0.000000000 0.382683432 -0.923879533
vn 0.000000000 0.382683432 -0.923879533
vn 0.000000000 0.608761429 -0.793353340
vn 0.000000000 0.608761429 -0.793353340
vn 0.000000000 0.793353340 -0.608761429
vn 0.000000000 0.793353340 -0.608761429
vn 0.000000000 0.923879533 -0.382683432
vn 0.000000000 0.923879533 -0.382683432
vn 0.000000000 0.991444861 -0.130526192
vn 0.000000000 0.991444861 -0.130526192
vn 0.000000000 0.991444861 0.130526192
vn -0.000000000 0.991444861 0.130526192
vn 0.000000000 0.923879533 0.382683432
vn -0.000000000 0.923879533 0.382683432
vn 0.000000000 0.793353340 0.608761429
vn -0.000000000 0.793353340 0.608761429
vn 0.000000000 0.608761429 0.793353340
vn -0.000000000 0.608761429 0.793353340
vn 0.000000000 0.382683432 0.923879533
vn -0.000000000 0.382683432 0.923879533
vn 0.000000000 0.130526192 0.991444861
vn -0.000000000 0.130526192 0.991444861
vn 0.000000000 -0.130526192 0.991444861
vn 0.000000000 -0.130526192 0.991444861
vn 0.000000000 -0.382683432 0.923879533
vn 0.000000000 -0.382683432 0.923879533
vn 0.000000000 -0.608761429 0.793353340
vn 0.000000000 -0.608761429 0.793353340
vn 0.000000000 -0.793353340 0.608761429
vn 0.000000000 -0.793353340 0.608761429
vn 0.000000000 -0.923879533 0.382683432
vn 0.000000000 -0.923879533 0.382683432
vn 0.000000000 -0.991444861 0.130526192
vn 0.000000000 -0.991444861 0.130526192
vn 0.000000000 -0.991444861 -0.130526192
vn 0.000000000 -0.991444861 -0.130526192
vn 0.000000000 -0.923879533 -0.382683432
vn 0.000000000 -0.923879533 -0.382683432
vn 0.000000000 -0.793353340 -0.608761429
vn 0.000000000 -0.793353340 -0.608761429
vn 0.000000000 -0.608761429 -0.793353340
vn 0.000000000 -0.608761429 -0.793353340
vn 0.000000000 -0.382683432 -0.923879533
vn 0.000000000 -0.382683432 -0.923879533
vn 0.000000000 -0.130526192 -0.991444861
vn 0.000000000 -0.130526192 -0.991444861
vn 0.000000000 0.130526192 -0.991444861
vn 0.000000000 0.130526192 -0.991444861
vn 0.000000000 0.382683432 -0.923879533
vn 0.000000000 0.382683432 -0.923879533
vn 0.000000000 0.608761429 -0.793353340
vn 0.000000000 0.608761429 -0.793353340
vn 0.000000000 0.793353340 -0.608761429
vn 0.000000000 0.793353340 -0.608761429
vn 0.000000000 0.923879533 -0.382683432
vn 0.000000000 0.923879533 -0.382683432
vn 0.000000000 0.991444861 -0.130526192
vn 0.000000000 0.991444861 -0.130526192
vn 0.192141203 0.972971557 0.128094136
vn 0.192141203 0.972971557 0.128094136
vn 0.192141203 0.906665153 0.375553003
vn 0.192141203 0.906665153 0.375553003
vn 0.192141203 0.778571018 0.597418554
vn 0.192141203 0.778571018 0.597418554
vn 0.192141203 0.597418554 0.778571018
vn 0.192141203 0.597418554 0.778571018
vn 0.192141203 0.375553003 0.906665153
vn 0.192141203 0.375553003 0.906665153
vn 0.192141203 0.128094136 0.972971557
vn 0.192141203 0.128094136 0.972971557
vn 0.192141203 -0.128094136 0.972971557
vn 0.192141203 -0.128094136 0.972971557
vn 0.192141203 -0.375553003 0.906665153
vn 0.192141203 -0.375553003 0.906665153
vn 0.192141203 -0.597418554 0.778571018
vn 0.192141203 -0.597418554 0.778571018
vn 0.192141203 -0.778571018 0.597418554
vn 0.192141203 -0.778571018 0.597418554
vn 0.192141203 -0.906665153 0.375553003
vn 0.192141203 -0.906665153 0.375553003
vn 0.192141203 -0.972971557 0.128094136
vn 0.192141203 -0.972971557 0.128094136
vn 0.192141203 -0.972971557 -0.128094136
vn 0.192141203 -0.972971557 -0.128094136
vn 0.192141203 -0.906665153 -0.375553003
vn 0.192141203 -0.906665153 -0.375553003
vn 0.192141203 -0.778571018 -0.597418554
vn 0.192141203 -0.778571018 -0.597418554
vn 0.192141203 -0.597418554 -0.778571018
vn 0.192141203 -0.597418554 -0.778571018
vn 0.192141203 -0.375553003 -0.906665153
vn 0.192141203 -0.375553003 -0.906665153
vn 0.192141203 -0.128094136 -0.972971557
vn 0.192141203 -0.128094136 -0.972971557
vn 0.192141203 0.128094136 -0.972971557
vn 0.192141203 0.128094136 -0.972971557
vn 0.192141203 0.375553003 -0.906665153
vn 0.192141203 0.375553003 -0.906665153
vn 0.192141203 0.597418554 -0.778571018
vn 0.192141203 0.597418554 -0.778571018
vn 0.192141203 0.778571018 -0.597418554
vn 0.192141203 0.778571018 -0.597418554
vn 0.192141203 0.906665153 -0.375553003
vn 0.192141203 0.906665153 -0.375553003
vn 0.192141203 0.972971557 -0.128094136
vn 0.192141203 0.972971557 -0.128094136
vn 0.524480409 0.844138478 0.111132939
vn 0.524480409 0.844138478 0.111132939
vn 0.524480409 0.786611836 0.325825291
vn 0.524480409 0.786611836 0.325825291
vn 0.524480409 0.675478897 0.518313187
vn 0.524480409 0.675478897 0.518313187
vn 0.524480409 0.518313187 0.675478897
vn 0.524480409 0.518313187 0.675478897
vn 0.524480409 0.325825291 0.786611836
vn 0.524480409 0.325825291 0.786611836
vn 0.524480409 0.111132939 0.844138478
vn 0.524480409 0.111132939 0.844138478
vn 0.524480409 -0.111132939 0.844138478
vn 0.524480409 -0.111132939 0.844138478
vn 0.524480409 -0.325825291 0.786611836
vn 0.524480409 -0.325825291 0.786611836
vn 0.524480409 -0.518313187 0.675478897
vn 0.524480409 -0.518313187 0.675478897
vn 0.524480409 -0.675478897 0.518313187
vn 0.524480409 -0.675478897 0.518313187
vn 0.524480409 -0.786611836 0.325825291
vn 0.524480409 -0.786611836 0.325825291
vn 0.524480409 -0.844138478 0.111132939
vn 0.524480409 -0.844138478 0.111132939
vn 0.524480409 -0.844138478 -0.111132939
vn 0.524480409 -0.844138478 -0.111132939
vn 0.524480409 -0.786611836 -0.325825291
vn 0.524480409 -0.786611836 -0.325825291
vn 0.524480409 -0.675478897 -0.518313187
vn 0.524480409 -0.675478897 -0.518313187
vn 0.524480409 -0.518313187 -0.675478897
vn 0.524480409 -0.518313187 -0.675478897
vn 0.524480409 -0.325825291 -0.786611836
vn 0.524480409 -0.325825291 -0.786611836
vn 0.524480409 -0.111132939 -0.844138478
vn 0.524480409 -0.111132939 -0.844138478
vn 0.524480409 0.111132939 -0.844138478
vn 0.524480409 0.111132939 -0.844138478
vn 0.524480409 0.325825291 -0.786611836
vn 0.524480409 0.325825291 -0.786611836
vn 0.524480409 0.518313187 -0.675478897
vn 0.524480409 0.518313187 -0.675478897
vn 0.524480409 0.675478897 -0.518313187
vn 0.524480409 0.675478897 -0.518313187
vn 0.524480409 0.786611836 -0.325825291
vn 0.524480409 0.786611836 -0.325825291
vn 0.524480409 0.844138478 -0.111132939
vn 0.524480409 0.844138478 -0.111132939
vn 0.752086775 0.653425712 0.086025127
vn 0.752086775 0.653425712 0.086025127
vn 0.752086775 0.608895829 0.252212911
vn 0.752086775 0.608895829 0.252212911
vn 0.752086775 0.522870702 0.401212801
vn 0.752086775 0.522870702 0.401212801
vn 0.752086775 0.401212801 0.522870702
vn 0.752086775 0.401212801 0.522870702
vn 0.752086775 0.252212911 0.608895829
vn 0.752086775 0.252212911 0.608895829
vn 0.752086775 0.086025127 0.653425712
vn 0.752086775 0.086025127 0.653425712
vn 0.752086775 -0.086025127 0.653425712
vn 0.752086775 -0.086025127 0.653425712
vn 0.752086775 -0.252212911 0.608895829
vn 0.752086775 -0.252212911 0.608895829
vn 0.752086775 -0.401212801 0.522870702
vn 0.752086775 -0.401212801 0.522870702
vn 0.752086775 -0.522870702 0.401212801
vn 0.752086775 -0.522870702 0.401212801
vn 0.752086775 -0.608895829 0.252212911
vn 0.752086775 -0.608895829 0.252212911
vn 0.752086775 -0.653425712 0.086025127
vn 0.752086775 -0.653425712 0.086025127
vn 0.752086775 -0.653425712 -0.086025127
vn 0.752086775 -0.653425712 -0.086025127
vn 0.752086775 -0.608895829 -0.252212911
vn 0.752086775 -0.608895829 -0.252212911
vn 0.752086775 -0.522870702 -0.401212801
vn 0.752086775 -0.522870702 -0.401212801
vn 0.752086775 -0.401212801 -0.522870702
vn 0.752086775 -0.401212801 -0.522870702
vn 0.752086775 -0.252212911 -0.608895829
vn 0.752086775 -0.252212911 -0.608895829
vn 0.752086775 -0.086025127 -0.653425712
vn 0.752086775 -0.086025127 -0.653425712
vn 0.752086775 0.086025127 -0.653425712
vn 0.752086775 0.086025127 -0.653425712
vn 0.752086775 0.252212911 -0.608895829
vn 0.752086775 0.252212911 -0.608895829
vn 0.752086775 0.401212801 -0.522870702
vn 0.752086775 0.401212801 -0.522870702
vn 0.752086775 0.522870702 -0.401212801
vn 0.752086775 0.522870702 -0.401212801
vn 0.752086775 0.608895829 -0.252212911
vn 0.752086775 0.608895829 -0.252212911
vn 0.752086775 0.653425712 -0.086025127
vn 0.752086775 0.653425712 -0.086025127
vn 0.888679886 0.454605374 0.059849933
vn 0.888679886 0.454605374 0.059849933
vn 0.888679886 0.423624769 0.175471125
vn 0.888679886 0.423624769 0.175471125
vn 0.888679886 0.363774836 0.279134249
vn 0.888679886 0.363774836 0.279134249
vn 0.888679886 0.279134249 0.363774836
vn 0.888679886 0.279134249 0.363774836
vn 0.888679886 0.175471125 0.423624769
vn 0.888679886 0.175471125 0.423624769
vn 0.888679886 0.059849933 0.454605374
vn 0.888679886 0.059849933 0.454605374
vn 0.888679886 -0.059849933 0.454605374
vn 0.888679886 -0.059849933 0.454605374
vn 0.888679886 -0.175471125 0.423624769
vn 0.888679886 -0.175471125 0.423624769
vn 0.888679886 -0.279134249 0.363774836
vn 0.888679886 -0.279134249 0.363774836
vn 0.888679886 -0.363774836 0.279134249
vn 0.888679886 -0.363774836 0.279134249
vn 0.888679886 -0.423624769 0.175471125
vn 0.888679886 -0.423624769 0.175471125
vn 0.888679886 -0.454605374 0.059849933
vn 0.888679886 -0.454605374 0.059849933
vn 0.888679886 -0.454605374 -0.059849933
vn 0.888679886 -0.454605374 -0.059849933
vn 0.888679886 -0.423624769 -0.175471125
vn 0.888679886 -0.423624769 -0.175471125
vn 0.888679886 -0.363774836 -0.279134249
vn 0.888679886 -0.363774836 -0.279134249
vn 0.888679886 -0.279134249 -0.363774836
vn 0.888679886 -0.279134249 -0.363774836
vn 0.888679886 -0.175471125 -0.423624769
vn 0.888679886 -0.175471125 -0.423624769
vn 0.888679886 -0.059849933 -0.454605374
vn 0.888679886 -0.059849933 -0.454605374
vn 0.888679886 0.059849933 -0.454605374
vn 0.888679886 0.059849933 -0.454605374
vn 0.888679886 0.175471125 -0.423624769
vn 0.888679886 0.175471125 -0.423624769
vn 0.888679886 0.279134249 -0.363774836
vn 0.888679886 0.279134249 -0.363774836
vn 0.888679886 0.363774836 -0.279134249
vn 0.888679886 0.363774836 -0.279134249
vn 0.888679886 0.423624769 -0.175471125
vn 0.888679886 0.423624769 -0.175471125
vn 0.888679886 0.454605374 -0.059849933
vn 0.888679886 0.454605374 -0.059849933
vn 0.963332001 0.266016787 0.035021774
vn 0.963332001 0.266016787 0.035021774
vn 0.963332001 0.247888182 0.102678647
vn 0.963332001 0.247888182 0.102678647
vn 0.963332001 0.212866408 0.163338140
vn 0.963332001 0.212866408 0.163338140
vn 0.963332001 0.163338140 0.212866408
vn 0.963332001 0.163338140 0.212866408
vn 0.963332001 0.102678647 0.247888182
vn 0.963332001 0.102678647 0.247888182
vn 0.963332001 0.035021774 0.266016787
vn 0.963332001 0.035021774 0.266016787
vn 0.963332001 -0.035021774 0.266016787
vn 0.963332001 -0.035021774 0.266016787
vn 0.963332001 -0.102678647 0.247888182
vn 0.963332001 -0.102678647 0.247888182
vn 0.963332001 -0.163338140 0.212866408
vn 0.963332001 -0.163338140 0.212866408
vn 0.963332001 -0.212866408 0.163338140
vn 0.963332001 -0.212866408 0.163338140
vn 0.963332001 -0.247888182 0.102678647
vn 0.963332001 -0.247888182 0.102678647
vn 0.963332001 -0.266016787 0.035021774
vn 0.963332001 -0.266016787 0.035021774
vn 0.963332001 -0.266016787 -0.035021774
vn 0.963332001 -0.266016787 -0.035021774
vn 0.963332001 -0.247888182 -0.102678647
vn 0.963332001 -0.247888182 -0.102678647
vn 0.963332001 -0.212866408 -0.163338140
vn 0.963332001 -0.212866408 -0.163338140
vn 0.963332001 -0.163338140 -0.212866408
vn 0.963332001 -0.163338140 -0.212866408
vn 0.963332001 -0.102678647 -0.247888182
vn 0.963332001 -0.102678647 -0.247888182
vn 0.963332001 -0.035021774 -0.266016787
vn 0.963332001 -0.035021774 -0.266016787
vn 0.963332001 0.035021774 -0.266016787
vn 0.963332001 0.035021774 -0.266016787
vn 0.963332001 0.102678647 -0.247888182
vn 0.963332001 0.102678647 -0.247888182
vn 0.963332001 0.163338140 -0.212866408
vn 0.963332001 0.163338140 -0.212866408
vn 0.963332001 0.212866408 -0.163338140
vn 0.963332001 0.212866408 -0.163338140
vn 0.963332001 0.247888182 -0.102678647
vn 0.963332001 0.247888182 -0.102678647
vn 0.963332001 0.266016787 -0.035021774
vn 0.963332001 0.266016787 -0.035021774
vn 0.996104483 0.087426429 0.011509908
vn 0.996104483 0.081468462 0.033745342
vn 0.996104483 0.069958554 0.053681087
vn 0.996104483 0.053681087 0.069958554
vn 0.996104483 0.033745342 0.081468462
vn 0.996104483 0.011509908 0.087426429
vn 0.996104483 -0.011509908 0.087426429
vn 0.996104483 -0.033745342 0.081468462
vn 0.996104483 -0.053681087 0.069958554
vn 0.996104483 -0.069958554 0.053681087
vn 0.996104483 -0.081468462 0.033745342
vn 0.996104483 -0.087426429 0.011509908
vn 0.996104483 -0.087426429 -0.011509908
vn 0.996104483 -0.081468462 -0.033745342
vn 0.996104483 -0.069958554 -0.053681087
vn 0.996104483 -0.053681087 -0.069958554
vn 0.996104483 -0.033745342 -0.081468462
vn 0.996104483 -0.011509908 -0.087426429
vn 0.996104483 0.011509908 -0.087426429
vn 0.996104483 0.033745342 -0.081468462
vn 0.996104483 0.053681087 -0.069958554
vn 0.996104483 0.069958554 -0.053681087
vn 0.996104483 0.081468462 -0.033745342
vn 0.996104483 0.087426429 -0.011509908
f 1//1 3//1 2//1
f 1//2 4//2 3//2
f 1//3 5//3 4//3
f 1//4 6//4 5//4
f 1//5 7//5 6//5
f 1//6 8//6 7//6
f 1//7 9//7 8//7
f 1//8 10//8 9//8
f 1//9 11//9 10//9
f 1//10 12//10 11//10
f 1//11 13//11 12//11
f 1//12 14//12 13//12
f 1//13 15//13 14//13
f 1//14 16//14 15//14
f 1//15 17//15 16//15
f 1//16 18//16 17//16
f 1//17 19//17 18//17
f 1//18 20//18 19//18
f 1//19 21//19 20//19
f 1//20 22//20 21//20
f 1//21 23//21 22//21
f 1//22 24//22 23//22
f 1//23 25//23 24//23
f 1//24 2//24 25//24
f 2//25 3//25 27//25
f 2//26 27//26 26//26
f 3//27 4//27 28//27
f 3//28 28//28 27//28
f 4//29 5//29 29//29
f 4//30 29//30 28//30
f 5//31 6//31 30//31
f 5//32 30//32 29//32
f 6//33 7//33 31//33
f 6//34 31//34 30//34
f 7//35 8//35 32//35
f 7//36 32//36 31//36
f 8//37 9//37 33//37
f 8//38 33//38 32//38
f 9//39 10//39 34//39
f 9//40 34//40 33//40
f 10//41 11//41 35//41
f 10//42 35//42 34//42
f 11//43 12//43 36//43
f 11//44 36//44 35//44
f 12//45 13//45 37//45
f 12//46 37//46 36//46
f 13//47 14//47 38//47
f 13//48 38//48 37//48
f 14//49 15//49 39//49
f 14//50 39//50 38//50
f 15//51 16//51 40//51
f 15//52 40//52 39//52
f 16//53 17//53 41//53
f 16//54 41//54 40//54
f 17//55 18//55 42//55
f 17//56 42//56 41//56
f 18//57 19//57 43//57
f 18//58 43//58 42//58
f 19//59 20//59 44//59
f 19//60 44//60 43//60
f 20//61 21//61 45//61
f 20//62 45//62 44//62
f 21//63 22//63 46//63
f 21//64 46//64 45//64
f 22//65 23//65 47//65
f 22//66 47//66 46//66
f 23//67 24//67 48//67
f 23//68 48//68 47//68
f 24//69 25//69 49//69
f 24//70 49//70 48//70
f 25//71 2//71 26//71
f 25//72 26//72 49//72
f 26//73 27//73 51//73
f 26//74 51//74 50//74
f 27//75 28//75 52//75
f 27//76 52//76 51//76
f 28//77 29//77 53//77
f 28//78 53//78 52//78
f 29//79 30//79 54//79
f 29//80 54//80 53//80
f 30//81 31//81 55//81
f 30//82 55//82 54//82
f 31//83 32//83 56//83
f 31//84 56//84 55//84
f 32//85 33//85 57//85
f 32//86 57//86 56//86
f 33//87 34//87 58//87
f 33//88 58//88 57//88
f 34//89 35//89 59//89
f 34//90 59//90 58//90
f 35//91 36//91 60//91
f 35//92 60//92 59//92
f 36//93 37//93 61//93
f 36//94 61//94 60//94
f 37//95 38//95 62//95
f 37//96 62//96 61//96
f 38//97 39//97 63//97
f 38//98 63//98 62//98
f 39//99 40//99 64//99
f 39//100 64//100 63//100
f 40//101 41//101 65//101
f 40//102 65//102 64//102
f 41//103 42//103 66//103
f 41//104 66//104 65//104
f 42//105 43//105 67//105
f 42//106 67//106 66//106
f 43//107 44//107 68//107
f 43//108 68//108 67//108
f 44//109 45//109 69//109
f 44//110 69//110 68//110
f 45//111 46//111 70//111
f 45//112 70//112 69//112
f 46//113 47//113 71//113
f 46//114 71//114 70//114
f 47//115 48//115 72//115
f 47//116 72//116 71//116
f 48//117 49//117 73//117
f 48//118 73//118 72//118
f 49//119 26//119 50//119
f 49//120 50//120 73//120
f 50//121 51//121 75//121
f 50//122 75//122 74//122
f 51//123 52//123 76//123
f 51//124 76//124 75//124
f 52//125 53//125 77//125
f 52//126 77//126 76//126
f 53//127 54//127 78//127
f 53//128 78//128 77//128
f 54//129 55//129 79//129
f 54//130 79//130 78//130
f 55//131 56//131 80//131
f 55//132 80//132 79//132
f 56//133 57//133 81//133
f 56//134 81//134 80//134
f 57//135 58//135 82//135
f 57//136 82//136 81//136
f 58//137 59//137 83//137
f 58//138 83//138 82//138
f 59//139 60//139 84//139
f 59//140 84//140 83//140
f 60//141 61//141 85//141
f 60//142 85//142 84//142
f 61//143 62//143 86//143
f 61//144 86//144 85//144
f 62//145 63//145 87//145
f 62//146 87//146 86//146
f 63//147 64//147 88//147
f 63//148 88//148 87//148
f 64//149 65//149 89//149
f 64//150 89//150 88//150
f 65//151 66//151 90//151
f 65//152 90//152 89//152
f 66//153 67//153 91//153
f 66//154 91//154 90//154
f 67//155 68//155 92//155
f 67//156 92//156 91//156
f 68//157 69//157 93//157
f 68//158 93//158 92//158
f 69//159 70//159 94//159
f 69//160 94//160 93//160
f 70//161 71//161 95//161
f 70//162 95//162 94//162
f 71//163 72//163 96//163
f 71//164 96//164 95//164
f 72//165 73//165 97//165
f 72//166 97//166 96//166
f 73//167 50//167 74//167
f 73//168 74//168 97//168
f 74//169 75//169 99//169
f 74//170 99//170 98//170
f 75//171 76//171 100//171
f 75//172 100//172 99//172
f 76//173 77//173 101//173
f 76//174 101//174 100//174
f 77//175 78//175 102//175
f 77//176 102//176 101//176
f 78//177 79//177 103//177
f 78//178 103//178 102//178
f 79//179 80//179 104//179
f 79//180 104//180 103//180
f 80//181 81//181 105//181
f 80//182 105//182 104//182
f 81//183 82//183 106//183
f 81//184 106//184 105//184
f 82//185 83//185 107//185
f 82//186 107//186 106//186
f 83//187 84//187 108//187
f 83//188 108//188 107//188
f 84//189 85//189 109//189
f 84//190 109//190 108//190
f 85//191 86//191 110//191
f 85//192 110//192 109//192
f 86//193 87//193 111//193
f 86//194 111//194 110//194
f 87//195 88//195 112//195
f 87//196 112//196 111//196
f 88//197 89//197 113//197
f 88//198 113//198 112//198
f 89//199 90//199 114//199
f 89//200 114//200 113//200
f 90//201 91//201 115//201
f 90//202 115//202 114//202
f 91//203 92//203 116//203
f 91//204 116//204 115//204
f 92//205 93//205 117//205
f 92//206 117//206 116//206
f 93//207 94//207 118//207
f 93//208 118//208 117//208
f 94//209 95//209 119//209
f 94//210 119//210 118//210
f 95//211 96//211 120//211
f 95//212 120//212 119//212
f 96//213 97//213 121//213
f 96//214 121//214 120//214
f 97//215 74//215 98//215
f 97//216 98//216 121//216
f 98//217 99//217 123//217
f 98//218 123//218 122//218
f 99//219 100//219 124//219
f 99//220 124//220 123//220
f 100//221 101//221 125//221
f 100//222 125//222 124//222
f 101//223 102//223 126//223
f 101//224 126//224 125//224
f 102//225 103//225 127//225
f 102//226 127//226 126//226
f 103//227 104//227 128//227
f 103//228 128//228 127//228
f 104//229 105//229 129//229
f 104//230 129//230 128//230
f 105//231 106//231 130//231
f 105//232 130//232 129//232
f 106//233 107//233 131//233
f 106//234 131//234 130//234
f 107//235 108//235 132//235
f 107//236 132//236 131//236
f 108//237 109//237 133//237
f 108//238 133//238 132//238
f 109//239 110//239 134//239
f 109//240 134//240 133//240
f 110//241 111//241 135//241
f 110//242 135//242 134//242
f 111//243 112//243 136//243
f 111//244 136//244 135//244
f 112//245 113//245 137//245
f 112//246 137//246 136//246
f 113//247 114//247 138//247
f 113//248 138//248 137//248
f 114//249 115//249 139//249
f 114//250 139//250 138//250
f 115//251 116//251 140//251
f 115//252 140//252 139//252
f 116//253 117//253 141//253
f 116//254 141//254 140//254
f 117//255 118//255 142//255
f 117//256 142//256 141//256
f 118//257 119//257 143//257
f 118//258 143//258 142//258
f 119//259 120//259 144//259
f 119//260 144//260 143//260
f 120//261 121//261 145//261
f 120//262 145//262 144//262
f 121//263 98//263 122//263
f 121//264 122//264 145//264
f 122//265 123//265 147//265
f 122//266 147//266 146//266
f 123//267 124//267 148//267
f 123//268 148//268 147//268
f 124//269 125//269 149//269
f 124//270 149//270 148//270
f 125//271 126//271 150//271
f 125//272 150//272 149//272
f 126//273 127//273 151//273
f 126//274 151//274 150//274
f 127//275 128//275 152//275
f 127//276 152//276 151//276
f 128//277 129//277 153//277
f 128//278 153//278 152//278
f 129//279 130//279 154//279
f 129//280 154//280 153//280
f 130//281 131//281 155//281
f 130//282 155//282 154//282
f 131//283 132//283 156//283
f 131//284 156//284 155//284
f 132//285 133//285 157//285
f 132//286 157//286 156//286
f 133//287 134//287 158//287
f 133//288 158//288 157//288
f 134//289 135//289 159//289
f 134//290 159//290 158//290
f 135//291 136//291 160//291
f 135//292 160//292 159//292
f 136//293 137//293 161//293
f 136//294 161//294 160//294
f 137//295 138//295 162//295
f 137//296 162//296 161//296
f 138//297 139//297 163//297
f 138//298 163//298 162//298
f 139//299 140//299 164//299
f 139//300 164//300 163//300
f 140//301 141//301 165//301
f 140//302 165//302 164//302
f 141//303 142//303 166//303
f 141//304 166//304 165//304
f 142//305 143//305 167//305
f 142//306 167//306 166//306
f 143//307 144//307 168//307
f 143//308 168//308 167//308
f 144//309 145//309 169//309
f 144//310 169//310 168//310
f 145//311 122//311 146//311
f 145//312 146//312 169//312
f 146//313 147//313 171//313
f 146//314 171//314 170//314
f 147//315 148//315 172//315
f 147//316 172//316 171//316
f 148//317 149//317 173//317
f 148//318 173//318 172//318
f 149//319 150//319 174//319
f 149//320 174//320 173//320
f 150//321 151//321 175//321
f 150//322 175//322 174//322
f 151//323 152//323 176//323
f 151//324 176//324 175//324
f 152//325 153//325 177//325
f 152//326 177//326 176//326
f 153//327 154//327 178//327
f 153//328 178//328 177//328
f 154//329 155//329 179//329
f 154//330 179//330 178//330
f 155//331 156//331 180//331
f 155//332 180//332 179//332
f 156//333 157//333 181//333
f 156//334 181//334 180//334
f 157//335 158//335 182//335
f 157//336 182//336 181//336
f 158//337 159//337 183//337
f 158//338 183//338 182//338
f 159//339 160//339 184//339
f 159//340 184//340 183//340
f 160//341 161//341 185//341
f 160//342 185//342 184//342
f 161//343 162//343 186//343
f 161//344 186//344 185//344
f 162//345 163//345 187//345
f 162//346 187//346 186//346
f 163//347 164//347 188//347
f 163//348 188//348 187//348
f 164//349 165//349 189//349
f 164//350 189//350 188//350
f 165//351 166//351 190//351
f 165//352 190//352 189//352
f 166//353 167//353 191//353
f 166//354 191//354 190//354
f 167//355 168//355 192//355
f 167//356 192//356 191//356
f 168//357 169//357 193//357
f 168//358 193//358 192//358
f 169//359 146//359 170//359
f 169//360 170//360 193//360
f 170//361 171//361 195//361
f 170//362 195//362 194//362
f 171//363 172//363 196//363
f 171//364 196//364 195//364
f 172//365 173//365 197//365
f 172//366 197//366 196//366
f 173//367 174//367 198//367
f 173//368 198//368 197//368
f 174//369 175//369 199//369
f 174//370 199//370 198//370
f 175//371 176//371 200//371
f 175//372 200//372 199//372
f 176//373 177//373 201//373
f 176//374 201//374 200//374
f 177//375 178//375 202//375
f 177//376 202//376 201//376
f 178//377 179//377 203//377
f 178//378 203//378 202//378
f 179//379 180//379 204//379
f 179//380 204//380 203//380
f 180//381 181//381 205//381
f 180//382 205//382 204//382
f 181//383 182//383 206//383
f 181//384 206//384 205//384
f 182//385 183//385 207//385
f 182//386 207//386 206//386
f 183//387 184//387 208//387
f 183//388 208//388 207//388
f 184//389 185//389 209//389
f 184//390 209//390 208//390
f 185//391 186//391 210//391
f 185//392 210//392 209//392
f 186//393 187//393 211//393
f 186//394 211//394 210//394
f 187//395 188//395 212//395
f 187//396 212//396 211//396
f 188//397 189//397 213//397
f 188//398 213//398 212//398
f 189//399 190//399 214//399
f 189//400 214//400 213//400
f 190//401 191//401 215//401
f 190//402 215//402 214//402
f 191//403 192//403 216//403
f 191//404 216//404 215//404
f 192//405 193//405 217//405
f 192//406 217//406 216//406
f 193//407 170//407 194//407
f 193//408 194//408 217//408
f 194//409 195//409 219//409
f 194//410 219//410 218//410
f 195//411 196//411 220//411
f 195//412 220//412 219//412
f 196//413 197//413 221//413
f 196//414 221//414 220//414
f 197//415 198//415 222//415
f 197//416 222//416 221//416
f 198//417 199//417 223//417
f 198//418 223//418 222//418
f 199//419 200//419 224//419
f 199//420 224//420 223//420
f 200//421 201//421 225//421
f 200//422 225//422 224//422
f 201//423 202//423 226//423
f 201//424 226//424 225//424
f 202//425 203//425 227//425
f 202//426 227//426 226//426
f 203//427 204//427 228//427
f 203//428 228//428 227//428
f 204//429 205//429 229//429
f 204//430 229//430 228//430
f 205//431 206//431 230//431
f 205//432 230//432 229//432
f 206//433 207//433 231//433
f 206//434 231//434 230//434
f 207//435 208//435 232//435
f 207//436 232//436 231//436
f 208//437 209//437 233//437
f 208//438 233//438 232//438
f 209//439 210//439 234//439
f 209//440 234//440 233//440
f 210//441 211//441 235//441
f 210//442 235//442 234//442
f 211//443 212//443 236//443
f 211//444 236//444 235//444
f 212//445 213//445 237//445
f 212//446 237//446 236//446
f 213//447 214//447 238//447
f 213//448 238//448 237//448
f 214//449 215//449 239//449
f 214//450 239//450 238//450
f 215//451 216//451 240//451
f 215//452 240//452 239//452
f 216//453 217//453 241//453
f 216//454 241//454 240//454
f 217//455 194//455 218//455
f 217//456 218//456 241//456
f 218//457 219//457 243//457
f 218//458 243//458 242//458
f 219//459 220//459 244//459
f 219//460 244//460 243//460
f 220//461 221//461 245//461
f 220//462 245//462 244//462
f 221//463 222//463 246//463
f 221//464 246//464 245//464
f 222//465 223//465 247//465
f 222//466 247//466 246//466
f 223//467 224//467 248//467
f 223//468 248//468 247//468
f 224//469 225//469 249//469
f 224//470 249//470 248//470
f 225//471 226//471 250//471
f 225//472 250//472 249//472
f 226//473 227//473 251//473
f 226//474 251//474 250//474
f 227//475 228//475 252//475
f 227//476 252//476 251//476
f 228//477 229//477 253//477
f 228//478 253//478 252//478
f 229//479 230//479 254//479
f 229//480 254//480 253//480
f 230//481 231//481 255//481
f 230//482 255//482 254//482
f 231//483 232//483 256//483
f 231//484 256//484 255//484
f 232//485 233//485 257//485
f 232//486 257//486 256//486
f 233//487 234//487 258//487
f 233//488 258//488 257//488
f 234//489 235//489 259//489
f 234//490 259//490 258//490
f 235//491 236//491 260//491
f 235//492 260//492 259//492
f 236//493 237//493 261//493
f 236//494 261//494 260//494
f 237//495 238//495 262//495
f 237//496 262//496 261//496
f 238//497 239//497 263//497
f 238//498 263//498 262//498
f 239//499 240//499 264//499
f 239//500 264//500 263//500
f 240//501 241//501 265//501
f 240//502 265//502 264//502
f 241//503 218//503 242//503
f 241//504 242//504 265//504
f 242//505 243//505 267//505
f 242//506 267//506 266//506
f 243//507 244//507 268//507
f 243//508 268//508 267//508
f 244//509 245//509 269//509
f 244//510 269//510 268//510
f 245//511 246//511 270//511
f 245//512 270//512 269//512
f 246//513 247//513 271//513
f 246//514 271//514 270//514
f 247//515 248//515 272//515
f 247//516 272//516 271//516
f 248//517 249//517 273//517
f 248//518 273//518 272//518
f 249//519 250//519 274//519
f 249//520 274//520 273//520
f 250//521 251//521 275//521
f 250//522 275//522 274//522
f 251//523 252//523 276//523
f 251//524 276//524 275//524
f 252//525 253//525 277//525
f 252//526 277//526 276//526
f 253//527 254//527 278//527
f 253//528 278//528 277//528
f 254//529 255//529 279//529
f 254//530 279//530 278//530
f 255//531 256//531 280//531
f 255//532 280//532 279//532
f 256//533 257//533 281//533
f 256//534 281//534 280//534
f 257//535 258//535 282//535
f 257//536 282//536 281//536
f 258//537 259//537 283//537
f 258//538 283//538 282//538
f 259//539 260//539 284//539
f 259//540 284//540 283//540
f 260//541 261//541 285//541
f 260//542 285//542 284//542
f 261//543 262//543 286//543
f 261//544 286//544 285//544
f 262//545 263//545 287//545
f 262//546 287//546 286//546
f 263//547 264//547 288//547
f 263//548 288//548 287//548
f 264//549 265//549 289//549
f 264//550 289//550 288//550
f 265//551 242//551 266//551
f 265//552 266//552 289//552
f 266//553 267//553 291//553
f 266//554 291//554 290//554
f 267//555 268//555 292//555
f 267//556 292//556 291//556
f 268//557 269//557 293//557
f 268//558 293//558 292//558
f 269//559 270//559 294//559
f 269//560 294//560 293//560
f 270//561 271//561 295//561
f 270//562 295//562 294//562
f 271//563 272//563 296//563
f 271//564 296//564 295//564
f 272//565 273//565 297//565
f 272//566 297//566 296//566
f 273//567 274//567 298//567
f 273//568 298//568 297//568
f 274//569 275//569 299//569
f 274//570 299//570 298//570
f 275//571 276//571 300//571
f 275//572 300//572 299//572
f 276//573 277//573 301//573
f 276//574 301//574 300//574
f 277//575 278//575 302//575
f 277//576 302//576 301//576
f 278//577 279//577 303//577
f 278//578 303//578 302//578
f 279//579 280//579 304//579
f 279//580 304//580 303//580
f 280//581 281//581 305//581
f 280//582 305//582 304//582
f 281//583 282//583 306//583
f 281//584 306//584 305//584
f 282//585 283//585 307//585
f 282//586 307//586 306//586
f 283//587 284//587 308//587
f 283//588 308//588 307//588
f 284//589 285//589 309//589
f 284//590 309//590 308//590
f 285//591 286//591 310//591
f 285//592 310//592 309//592
f 286//593 287//593 311//593
f 286//594 311//594 310//594
f 287//595 288//595 312//595
f 287//596 312//596 311//596
f 288//597 289//597 313//597
f 288//598 313//598 312//598
f 289//599 266//599 290//599
f 289//600 290//600 313//600
f 290//601 291//601 314//601
f 291//602 292//602 314//602
f 292//603 293//603 314//603
f 293//604 294//604 314//604
f 294//605 295//605 314//605
f 295//606 296//606 314//606
f 296//607 297//607 314//607
f 297//608 298//608 314//608
f 298//609 299//609 314//609
f 299//610 300//610 314//610
f 300//611 301//611 314//611
f 301//612 302//612 314//612
f 302//613 303//613 314//613
f 303//614 304//614 314//614
f 304//615 305//615 314//615
f 305//616 306//616 314//616
f 306//617 307//617 314//617
f 307//618 308//618 314//618
f 308//619 309//619 314//619
f 309//620 310//620 314//620
f 310//621 311//621 314//621
f 311//622 312//622 314//622
f 312//623 313//623 314//623
f 313//624 290//624 314//624
